#define button_width 16
#define button_height 16
static char button_bits[] = {
  0xF0, 0x0F, 0xFC, 0x3F, 0xFE, 0x7F, 0xFE, 0x7F, 0xFF, 0xFF, 0xFF, 0xFF, 
  0xFF, 0xFF, 0xFF, 0xFF, 0xFF, 0xFF, 0xFF, 0xFF, 0xFF, 0xFF, 0xFF, 0xFF, 
  0xFE, 0x7F, 0xFE, 0x7F, 0xFC, 0x3F, 0xF0, 0x0F, };
