#define trimmed_width 10
#define trimmed_height 10
static char trimmed_bits[] = {
  0xFC, 0x00, 0xFE, 0x01, 0xFF, 0x03, 0xFF, 0x03, 0xFF, 0x03, 0xFF, 0x03, 
  0xFF, 0x03, 0xFF, 0x03, 0xFE, 0x01, 0xFC, 0x00, };
